<svg width="1015" height="838" viewBox="0 0 1015 838" fill="none" xmlns="http://www.w3.org/2000/svg">
<rect width="1015" height="838" fill="white"/>
<g clip-path="url(#clip0_46_498)">
<path d="M822.621 483.812V435.584H797.865L802.049 426.25L808.63 414.709L802.049 403.168L797.865 393.834H822.621V353.188H720.411V483.812H822.621Z" fill="#2EFF1F"/>
<path d="M814.939 335H728.144C715.954 335 706.122 346.126 706.122 359.835V477.165C706.122 490.887 715.993 502 728.144 502H814.939C827.129 502 836.961 490.887 836.961 477.165V359.835C837 346.126 827.129 335 814.939 335ZM720.372 470.571V366.429C720.372 359.108 725.644 353.188 732.134 353.188H822.582V393.834H797.839L802.01 403.168L808.591 414.709L802.049 426.289L797.878 435.623H822.621V483.864H732.173C725.683 483.825 720.41 477.892 720.41 470.571H720.372Z" fill="#003152"/>
<path d="M794.769 416.046L780.182 425.523L765.595 435V424.874H736.979V407.232H765.595V397.093L780.182 406.57L794.769 416.046Z" fill="#003152"/>
<path d="M273.458 371.025H240.243V483.046H210.617V371.025H177V341.53H273.458V371.025Z" fill="#003152"/>
<path d="M329.745 341.53H356.392C361.304 341.525 366.169 342.491 370.708 344.373C375.247 346.254 379.371 349.015 382.844 352.496C386.317 355.978 389.071 360.112 390.947 364.661C392.823 369.21 393.785 374.086 393.779 379.009V483.046H364.152V430.625L321.985 442.179V483.046H292.359V379.009C292.352 374.086 293.314 369.21 295.19 364.661C297.067 360.112 299.82 355.978 303.293 352.496C306.766 349.015 310.89 346.254 315.429 344.373C319.968 342.491 324.833 341.525 329.745 341.53ZM356.392 371.233H329.745C327.684 371.233 325.707 372.053 324.249 373.514C322.791 374.975 321.972 376.956 321.972 379.022V411.697L364.152 400.325V379.009C364.152 376.943 363.333 374.962 361.875 373.501C360.418 372.04 358.441 371.22 356.379 371.22L356.392 371.233Z" fill="#003152"/>
<path d="M414.065 341.53H480.301C490.186 341.574 499.65 345.544 506.619 352.57C513.588 359.595 517.494 369.103 517.48 379.009V392.354C517.524 399.387 515.521 406.281 511.715 412.191C508.014 418.108 502.701 422.842 496.403 425.835L511.715 483.046H481.286L468.137 433.806L443.277 440.387V483.046H414.065V341.53ZM443.303 371.233V409.698L484.071 399.131C485.274 398.456 486.276 397.473 486.975 396.282C487.674 395.091 488.044 393.736 488.048 392.354V379.009C488.048 376.943 487.229 374.962 485.771 373.501C484.314 372.04 482.336 371.22 480.275 371.22L443.303 371.233Z" fill="#003152"/>
<path d="M565.411 483.046H535.979V341.543H565.411V483.046Z" fill="#003152"/>
<path d="M624.082 341.335H650.936C655.84 341.276 660.705 342.217 665.234 344.1C669.764 345.984 673.864 348.771 677.285 352.292C680.838 355.679 683.655 359.765 685.56 364.292C687.466 368.82 688.42 373.693 688.361 378.606V445.567C688.351 453.196 685.742 460.593 680.964 466.533C676.276 472.748 669.937 477.517 662.673 480.294L666.844 497.171H636.013L632.839 482.813H624.082C619.207 482.814 614.38 481.85 609.878 479.975C605.377 478.1 601.29 475.352 597.852 471.888C594.415 468.424 591.695 464.312 589.849 459.791C588.003 455.269 587.068 450.427 587.097 445.541V378.606C587.025 373.713 587.948 368.856 589.81 364.332C591.671 359.808 594.433 355.711 597.927 352.292C601.303 348.765 605.367 345.972 609.867 344.087C614.366 342.202 619.205 341.265 624.082 341.335ZM650.936 370.83H624.082C622.02 370.83 620.043 371.651 618.586 373.112C617.128 374.572 616.309 376.554 616.309 378.619V445.58C616.309 447.646 617.128 449.627 618.586 451.088C620.043 452.549 622.02 453.37 624.082 453.37H626.077L621.504 435.377L650.34 427.587L656.105 451.305C656.692 450.981 657.173 450.495 657.491 449.903C658.368 448.591 658.914 447.086 659.084 445.515V378.606C659.096 377.576 658.889 376.556 658.478 375.611C658.067 374.667 657.462 373.821 656.701 373.128C655.94 372.381 655.039 371.792 654.049 371.398C653.059 371.003 652.001 370.81 650.936 370.83Z" fill="#003152"/>
</g>
<defs>
<clipPath id="clip0_46_498">
<rect width="660" height="167" fill="white" transform="translate(177 335)"/>
</clipPath>
</defs>
</svg>
