<svg width="208" height="65" viewBox="0 0 208 65" fill="none" xmlns="http://www.w3.org/2000/svg">
<g clip-path="url(#clip0_179_9233)">
<path d="M0 13.9293C0.603259 11.5907 1.13196 9.51732 1.66744 7.4779C2.14869 5.61522 2.66383 3.75934 3.10441 1.88987C3.3891 0.632222 3.90424 0 5.37511 0C24.1304 0.0543847 42.8789 0.0339904 61.6341 0.0407885C62.1289 0.0407885 62.6305 0.0951732 63.3964 0.14276C62.9084 1.95785 62.4611 3.62338 62.0408 5.28211C61.4037 7.62746 60.6852 9.9592 60.1361 12.3181C59.8108 13.637 59.1397 14.0992 57.757 14.072C52.5581 13.9837 47.3592 14.072 42.1671 14.0041C40.6082 14.0041 39.8761 14.4731 39.4559 16.0435C38.1002 21.2984 36.5751 26.5057 35.0433 31.7199C34.8463 32.4079 34.4175 33.0062 33.83 33.4126C24.6455 38.8511 16.8845 45.9891 9.6996 53.8069C9.35864 54.187 8.90468 54.4468 8.40496 54.5479C8.96077 52.5084 9.50981 50.3942 10.0792 48.3276C12.7362 38.6743 15.3978 29.0256 18.0639 19.3814C18.3621 18.2869 18.6604 17.1992 18.9857 16.1183C19.5348 14.2896 19.406 14.0788 17.4403 14.0788H2.35881C1.66744 14.0313 1.00317 13.9769 0 13.9293Z" fill="#263238"/>
<path d="M94 25.2074C88.8214 26.2815 83.7581 27.1516 78.7829 28.3889C58.2925 33.5146 41.4554 44.0381 29.8647 62.1482C29.5368 62.7589 29.0364 63.2589 28.4262 63.5854C27.8161 63.912 27.1233 64.0505 26.435 63.9837C20.5108 63.8885 14.5799 63.9497 8.64898 63.9361C7.97116 63.9361 7.34756 63.8817 6.50029 63.8341C6.62942 63.4484 6.80227 63.0789 7.01543 62.7328C14.1935 54.6499 21.5411 46.7641 30.4205 40.4827C39.277 34.2779 49.3034 29.9521 59.8853 27.7702C70.6017 25.4521 81.4671 24.9558 92.3732 24.915C92.7112 24.916 93.0487 24.941 93.3832 24.9898C93.5956 25.0414 93.8022 25.1143 94 25.2074Z" fill="#A5F50F"/>
</g>
<path d="M71.1493 64.1926V44.066H64V40.5082H82.6018V44.066H75.4525V64.1926H71.1493ZM80.3994 64.1926L89.8867 40.5082H94.0543L103.508 64.1926H99.1368L96.9683 58.7374H86.9389L84.8042 64.1926H80.3994ZM88.1248 55.1796H95.7824L91.9536 45.1164L88.1248 55.1796ZM106.896 64.1926V40.5082H116.79C119.41 40.5082 121.432 41.152 122.855 42.4396C124.278 43.7271 124.99 45.5907 124.99 48.0303C124.99 49.7696 124.56 51.2492 123.702 52.469C122.844 53.6888 121.624 54.5585 120.043 55.078L124.854 64.1926H120.449L115.875 55.5185H111.199V64.1926H106.896ZM111.199 51.9607H116.011C117.411 51.9607 118.541 51.6332 119.399 50.9781C120.257 50.3231 120.686 49.3405 120.686 48.0303C120.686 45.3874 119.128 44.066 116.011 44.066H111.199V51.9607ZM128.378 64.1926V40.5082H132.681V64.1926H128.378ZM149.182 64.1926C146.539 64.1926 144.228 63.7069 142.25 62.7356C140.275 61.7643 138.751 60.3751 137.675 58.568C136.605 56.7609 136.069 54.6601 136.069 52.2657C136.069 49.8487 136.616 47.7073 137.709 45.8415C138.807 43.9801 140.309 42.5412 142.216 41.5247C144.127 40.5082 146.268 40 148.64 40C150.989 40 153.117 40.5082 155.024 41.5247C156.935 42.5412 158.437 43.9801 159.53 45.8415C160.628 47.7073 161.177 49.8487 161.177 52.2657C161.177 53.8921 160.815 55.4439 160.093 56.9212C159.37 58.4031 158.432 59.5732 157.28 60.4315H161.617V64.1926H149.182ZM148.64 60.296C151.147 60.296 153.14 59.5957 154.617 58.1952C156.099 56.7947 156.84 54.8182 156.84 52.2657C156.84 50.5941 156.478 49.1259 155.756 47.8609C155.033 46.5959 154.05 45.6246 152.808 44.9469C151.565 44.2693 150.176 43.9304 148.64 43.9304C147.104 43.9304 145.708 44.2693 144.452 44.9469C143.201 45.6246 142.214 46.5959 141.491 47.8609C140.768 49.1259 140.406 50.5941 140.406 52.2657C140.406 54.8408 141.145 56.8218 142.622 58.2088C144.104 59.6003 146.11 60.296 148.64 60.296ZM161.448 64.1926L170.935 40.5082H175.103L184.556 64.1926H180.185L178.017 58.7374H167.987L165.853 64.1926H161.448ZM169.173 55.1796H176.831L173.002 45.1164L169.173 55.1796ZM187.944 64.1926V40.5082H192.248V51.2492L201.972 40.5082H207.122L196.619 52.0963L207.8 64.1926H202.65L192.248 52.9434V64.1926H187.944Z" fill="#1A2129"/>
<defs>
<clipPath id="clip0_179_9233">
<rect width="94" height="64" fill="white"/>
</clipPath>
</defs>
</svg>
